<svg width="222" height="32" viewBox="0 0 222 32" fill="none" xmlns="http://www.w3.org/2000/svg">
<path d="M71.9323 24.8605C73.1516 24.8605 74.0226 24.6876 74.9806 24.4282V30.0921C74.0226 30.5244 72.4548 30.8271 70.1468 30.8271C66.3581 30.8271 63.179 29.5732 63.179 22.6555V13.7057H60V8.08508H63.179V2.81032H70.0597V8.08508H74.8935V13.7057H70.0597V22.6555C70.0597 23.6499 70.321 24.8605 71.9323 24.8605ZM89.8742 7.69596C95.0129 7.69596 102.198 11.5439 100.761 21.7043H84.9532C85.7371 24.039 87.7839 25.2497 90.5274 25.2497C93.3145 25.2497 94.1855 24.6443 95.7532 23.9958L99.5419 27.6276C97.5387 29.5732 94.8387 31 90.2661 31C84.6484 31 77.9419 27.152 77.9419 19.4128C77.9419 11.5439 84.7355 7.69596 89.8742 7.69596ZM89.8742 13.5328C87.9145 13.5328 85.9113 14.6569 85.0403 16.9052H94.6645C93.9677 14.6569 91.8339 13.5328 89.8742 13.5328ZM118.573 7.73919C122.797 7.73919 127.108 10.5495 127.108 17.6834V30.5676H120.227V18.159C120.227 14.7434 119.052 13.6625 116.874 13.6625C113.782 13.6625 111.997 16.6457 111.561 17.9428V30.5676H104.681V8.08508H111.561V11.9763C111.997 10.8954 114.305 7.73919 118.573 7.73919ZM142.306 24.8605C143.526 24.8605 144.397 24.6876 145.355 24.4282V30.0921C144.397 30.5244 142.829 30.8271 140.521 30.8271C136.732 30.8271 133.553 29.5732 133.553 22.6555V13.7057H130.374V8.08508H133.553V2.81032H140.434V8.08508H145.268V13.7057H140.434V22.6555C140.434 23.6499 140.695 24.8605 142.306 24.8605ZM160.248 7.69596C165.387 7.69596 172.573 11.5439 171.135 21.7043H155.327C156.111 24.039 158.158 25.2497 160.902 25.2497C163.689 25.2497 164.56 24.6443 166.127 23.9958L169.916 27.6276C167.913 29.5732 165.213 31 160.64 31C155.023 31 148.316 27.152 148.316 19.4128C148.316 11.5439 155.11 7.69596 160.248 7.69596ZM160.248 13.5328C158.289 13.5328 156.285 14.6569 155.415 16.9052H165.039C164.342 14.6569 162.208 13.5328 160.248 13.5328ZM186.203 7.69596C190.34 7.69596 193.824 9.42538 195.958 13.0572L190.732 15.5216C189.6 14.5704 188.685 13.7057 186.29 13.7057C183.677 13.7057 181.021 15.6946 181.021 19.3696C181.021 23.0014 183.677 24.9038 186.29 24.9038C188.685 24.9038 189.6 24.1255 190.732 23.1743L196.045 25.6388C193.824 29.2706 190.427 30.9135 186.203 30.9135C181.152 30.9135 174.358 27.325 174.358 19.3696C174.358 11.5439 181.152 7.69596 186.203 7.69596ZM213.465 7.73919C217.689 7.73919 222 10.5495 222 17.6834V30.5676H215.119V18.159C215.119 14.7434 213.944 13.6625 211.766 13.6625C208.674 13.6625 206.889 16.6457 206.453 17.9428V30.5676H199.573V0H206.453V11.9763C206.889 10.8954 209.197 7.73919 213.465 7.73919Z" fill="#22313F"/>
<path d="M18.1817 31.1066H20.3993L31.818 4H29.6004L18.1817 31.1066Z" fill="#22313F"/>
<path d="M36.3639 4V7.19468L46.784 17.543L36.3639 27.8981V31.0859L50.0003 17.543L36.3639 4Z" fill="#22313F"/>
<path d="M13.6363 31.0859V27.8981L3.21624 17.543L13.6363 7.19468V4L0 17.543L13.6363 31.0859Z" fill="#22313F"/>
</svg>
